<svg xmlns="http://www.w3.org/2000/svg" style="display: none;"><symbol id="graph" viewBox="0 0 512 512"><title>graph</title><g> <g> <polygon points="121,294.789 121,496 181,496 181,234.789 "/> </g> </g><g> <g> <polygon points="211,234.789 211,496 271,496 271,294.789 "/> </g> </g><g> <g> <polygon points="301,294.789 301,496 361,496 361,234.789 "/> </g> </g><g> <g> <path d="M456.395,140.395L391,204.789V496h76c8.291,0,15-6.709,15-15V151C482,137.721,465.861,130.928,456.395,140.395z"/> </g> </g><g> <g> <path d="M4.395,410.395C1.582,413.207,0,417.016,0,421v60c0,8.291,6.709,15,15,15h76V324.789L4.395,410.395z"/> </g> </g><g> <g> <path d="M497,16h-60c-8.291,0-15,6.709-15,15s6.709,15,15,15h28.931L286,224.931l-79.395-79.395 c-5.859-5.859-15.352-5.859-21.211,0l-181,180c-5.859,5.859-5.859,15.352,0,21.211c5.859,5.859,15.352,5.859,21.211,0L196,177.353 l79.395,79.395c5.859,5.859,15.352,5.859,21.211,0L482,72.353V91c0,8.291,6.709,15,15,15c8.291,0,15-6.709,15-15V31 C512,22.709,505.291,16,497,16z"/> </g> </g></symbol><symbol id="call" viewBox="0 0 384 384"><title>call</title><path d="M353.188,252.052c-23.51,0-46.594-3.677-68.469-10.906c-10.719-3.656-23.896-0.302-30.438,6.417l-43.177,32.594 c-50.073-26.729-80.917-57.563-107.281-107.26l31.635-42.052c8.219-8.208,11.167-20.198,7.635-31.448 c-7.26-21.99-10.948-45.063-10.948-68.583C132.146,13.823,118.323,0,101.333,0H30.813C13.823,0,0,13.823,0,30.813 C0,225.563,158.438,384,353.188,384c16.99,0,30.813-13.823,30.813-30.813v-70.323C384,265.875,370.177,252.052,353.188,252.052z"/></symbol><symbol id="email" viewBox="0 0 512 512"><title>email</title><g> <g> <polygon points="339.392,258.624 512,367.744 512,144.896 "/> </g> </g><g> <g> <polygon points="0,144.896 0,367.744 172.608,258.624 "/> </g> </g><g> <g> <path d="M480,80H32C16.032,80,3.36,91.904,0.96,107.232L256,275.264l255.04-168.032C508.64,91.904,495.968,80,480,80z"/> </g> </g><g> <g> <path d="M310.08,277.952l-45.28,29.824c-2.688,1.76-5.728,2.624-8.8,2.624c-3.072,0-6.112-0.864-8.8-2.624l-45.28-29.856 L1.024,404.992C3.488,420.192,16.096,432,32,432h448c15.904,0,28.512-11.808,30.976-27.008L310.08,277.952z"/> </g> </g></symbol><symbol id="lightbulb" viewBox="0 0 558.756 558.756"><title>lightbulb</title><path d="M279.377,0c-97.079,0-175.76,78.679-175.76,175.76c0,18.333,2.815,35.976,7.999,52.589l63.883,168.86 c4.499,14.281,17.849,24.612,33.574,24.612h140.608c15.756,0,29.076-10.334,33.537-24.612l63.92-168.86 c5.184-16.616,8-34.26,8-52.589C455.135,78.679,376.455,0,279.377,0z M282.264,85.955c-51.106,0-92.691,41.567-92.691,92.69 c0,10.248-8.293,18.538-18.538,18.538c-10.248,0-18.538-8.29-18.538-18.538c0-71.546,58.223-129.768,129.768-129.768 c10.248,0,18.537,8.29,18.537,18.537C300.803,77.663,292.512,85.955,282.264,85.955z"/><path d="M208.128,491.53h142.5c13.129,0,23.75-10.621,23.75-23.748c0-13.128-10.621-23.749-23.75-23.749h-142.5 c-13.127,0-23.749,10.621-23.749,23.749C184.376,480.909,194.998,491.53,208.128,491.53z"/><path d="M208.128,558.756h142.5c13.129,0,23.75-10.621,23.75-23.749c0-13.127-10.621-23.748-23.75-23.748h-142.5 c-13.127,0-23.749,10.621-23.749,23.748C184.38,548.135,194.998,558.756,208.128,558.756z"/></symbol><symbol id="customer" viewBox="0 0 512.001 512.001"><title>customer</title><g> <g> <path d="M271.029,0c-33.091,0-61,27.909-61,61s27.909,61,61,61s60-27.909,60-61S304.12,0,271.029,0z"/> </g> </g><g> <g> <path d="M337.621,122c-16.485,18.279-40.096,30-66.592,30c-26.496,0-51.107-11.721-67.592-30 c-14.392,15.959-23.408,36.866-23.408,60v15c0,8.291,6.709,15,15,15h151c8.291,0,15-6.709,15-15v-15 C361.029,158.866,352.013,137.959,337.621,122z"/> </g> </g><g> <g> <path d="M144.946,460.404L68.505,307.149c-7.381-14.799-25.345-20.834-40.162-13.493l-19.979,9.897 c-7.439,3.689-10.466,12.73-6.753,20.156l90,180c3.701,7.423,12.704,10.377,20.083,6.738l19.722-9.771 C146.291,493.308,152.354,475.259,144.946,460.404z"/> </g> </g><g> <g> <path d="M499.73,247.7c-12.301-9-29.401-7.2-39.6,3.9l-82,100.8c-5.7,6-16.5,9.6-22.2,9.6h-69.901c-8.401,0-15-6.599-15-15 s6.599-15,15-15c20.09,0,42.332,0,60,0c16.5,0,30-13.5,30-30s-13.5-30-30-30c-70.446,0-3.25,0-78.6,0 c-7.476,0-11.204-4.741-17.1-9.901c-23.209-20.885-57.949-30.947-93.119-22.795c-19.528,4.526-32.697,12.415-46.053,22.993 l-0.445-0.361L89.016,281.03L174.28,452h25.248h146.501c28.2,0,55.201-13.5,72.001-36l87.999-126 C515.929,276.799,513.229,257.601,499.73,247.7z"/> </g> </g></symbol><symbol id="global" viewBox="0 0 64 64"><title>global</title><path d="M45,28a9,9,0,1,0-9-9A9.011,9.011,0,0,0,45,28Zm0-16a7,7,0,1,1-7,7A7.008,7.008,0,0,1,45,12Z"/><path d="M62,19A16.972,16.972,0,0,0,33.772,6.269,26.877,26.877,0,0,0,30,6,27.991,27.991,0,0,0,3.61,43.347c.008.02.012.04.02.059A28,28,0,0,0,58,34a26.883,26.883,0,0,0-.223-3.424C60.189,26.325,62,22.1,62,19Zm-2,0c0,7.292-11.838,22.489-15,26.417C41.838,41.489,30,26.3,30,19a15,15,0,0,1,30,0ZM22,9.265V11a1,1,0,0,1-1,1,3.015,3.015,0,0,0-3,3v5a1,1,0,0,1-1,1H13a3,3,0,0,0-3,3,3.015,3.015,0,0,0,3,3H23a3,3,0,0,1,3,3v3a3,3,0,0,1-3,3H22a3.032,3.032,0,0,0-2.4,1.2l-2,2.663A2.993,2.993,0,0,0,17,41.67l0,7.913-1.65-1.65a2.026,2.026,0,0,1-.547-1.019l-.5-2.5A3.011,3.011,0,0,0,11.36,42H5.265A25.983,25.983,0,0,1,22,9.265ZM6,44H11.36a1,1,0,0,1,.979.806l.5,2.506a4.009,4.009,0,0,0,1.092,2.035L15.583,51A2,2,0,0,0,19,49.59V41.67a.972.972,0,0,1,.2-.6l2-2.665A1.017,1.017,0,0,1,22,38h1a5.006,5.006,0,0,0,5-5V30a5.006,5.006,0,0,0-5-5H13a.974.974,0,0,1-.712-.306A.957.957,0,0,1,12,24a1,1,0,0,1,1-1h4a3,3,0,0,0,3-3V15a.974.974,0,0,1,.306-.712A.957.957,0,0,1,21,14a3,3,0,0,0,3-3V8.707A25.923,25.923,0,0,1,30,8c.683,0,1.345.025,2,.074A16.913,16.913,0,0,0,28,19c0,5.9,6.542,15.847,11.326,22.337a2.98,2.98,0,0,0-1.592,2.169l-.441,2.66A1,1,0,0,1,36.31,47H32.36a2.006,2.006,0,0,0-1.281.462l-4.493,3.755a2.965,2.965,0,0,0-.771,3.65L27,57.236v2.586A26.064,26.064,0,0,1,6,44ZM30,60c-.335,0-.668-.013-1-.025V57a1,1,0,0,0-.105-.447L27.6,53.969a.982.982,0,0,1,.259-1.211L32.36,49h3.95a2.989,2.989,0,0,0,2.957-2.506l.44-2.66a1,1,0,0,1,.877-.814c1.981,2.614,3.455,4.389,3.648,4.621a1,1,0,0,0,1.536,0c.194-.233,1.674-2.016,3.663-4.641H51.84a1.008,1.008,0,0,1,.854.477l.884,1.463A26.03,26.03,0,0,1,30,60ZM56,34a25.887,25.887,0,0,1-1.479,8.633l-.118-.194A3.02,3.02,0,0,0,51.84,41h-.918c1.612-2.2,3.4-4.766,5.064-7.428C55.988,33.716,56,33.855,56,34Z"/></symbol><symbol id="kindness" viewBox="0 0 511.996 511.996"><title>kindness</title><path d="m215.144 409.225v-19.982c0-.078-.001-.157-.003-.235-.364-15.471-.741-31.468-5.183-48.134-10.128-37.893-32.084-58.816-73.408-69.961l-.671-.182c-1.162-.313-2.588-.696-3.107-.917-.191-.201-.719-.832-1.803-2.595l-26.044-42.238c-4.992-8.117-12.825-13.451-21.444-15.509l-6.245-80.556c-1.472-18.794-15.961-32.995-33.724-33.033-18.008 0-32.546 14.211-33.817 33.059l-9.581 142.571c-.007.102-.012.203-.016.305-1.382 37.703 11.877 49.72 31.947 67.908l.385.35c2.533 2.296 5.517 4.847 8.676 7.548 17.362 14.843 43.6 37.274 43.6 58.892v2.709c-10.087 3.258-17.405 12.729-17.405 23.88v36.301c0 13.836 11.264 25.093 25.108 25.093h12.558c5.523 0 10-4.478 10-10s-4.477-10-10-10h-12.557c-2.769 0-5.108-2.332-5.108-5.093v-36.301c0-2.761 2.339-5.093 5.108-5.093h115.03c2.77 0 5.109 2.332 5.109 5.093v36.301c0 2.809-2.292 5.093-5.109 5.093h-12.643c-5.523 0-10 4.478-10 10s4.477 10 10 10h12.643c13.845 0 25.109-11.257 25.109-25.093v-36.301c0-11.151-7.318-20.622-17.405-23.88zm-20-1.213h-90.438v-1.496c0-30.831-30.452-56.866-50.603-74.094-3.045-2.604-5.922-5.063-8.24-7.164l-.387-.351c-18.661-16.912-26.404-23.932-25.396-52.207l9.571-142.414c.554-8.211 6.513-14.402 13.84-14.402 8.314.018 13.239 7.356 13.806 14.587l6.214 80.152c-2.131.781-4.215 1.781-6.222 3.013-16.25 10.01-21.342 31.372-11.348 47.626l42.208 68.497c2.897 4.702 9.058 6.165 13.76 3.268s6.165-9.058 3.268-13.76l-42.203-68.489c-4.218-6.859-2.063-15.883 4.791-20.104 6.879-4.219 15.908-2.074 20.132 4.795l26.042 42.234c5.22 8.497 9.11 10.286 16.742 12.342l.656.177c39.698 10.706 52.417 30.057 59.301 55.812 3.817 14.319 4.174 29.063 4.51 43.327v18.651z"/><path d="m511.897 271.818c-.004-.102-.009-.203-.016-.305l-9.581-142.573c-1.271-18.846-15.811-33.057-33.839-33.057-17.741.038-32.229 14.239-33.702 33.041l-6.244 80.546c-8.618 2.057-16.449 7.387-21.438 15.5l-26.061 42.264c-1.075 1.75-1.602 2.379-1.793 2.58-.52.221-1.945.604-3.106.917l-.662.179c-41.334 11.147-63.29 32.071-73.418 69.97-4.443 16.664-4.819 32.659-5.183 48.128-.002.079-.003.157-.003.235v19.982c-10.086 3.258-17.404 12.729-17.404 23.879v36.301c0 13.836 11.264 25.093 25.108 25.093h115.03c13.845 0 25.108-11.257 25.108-25.093v-36.301c0-11.15-7.318-20.621-17.404-23.879v-2.709c0-21.618 26.238-44.05 43.601-58.894 3.158-2.7 6.142-5.25 8.674-7.546l.386-.35c20.069-18.188 33.328-30.205 31.947-67.908zm-87.203 197.587c0 2.761-2.34 5.093-5.108 5.093h-115.03c-2.769 0-5.108-2.332-5.108-5.093v-36.301c0-2.761 2.34-5.093 5.108-5.093h115.03c2.769 0 5.108 2.332 5.108 5.093zm41.825-144.498-.387.351c-2.317 2.101-5.193 4.56-8.238 7.163-20.151 17.228-50.604 43.263-50.604 74.095v1.496h-90.438v-18.65c.335-14.262.691-29.006 4.509-43.323 6.884-25.761 19.604-45.111 59.311-55.82l.648-.175c7.631-2.056 11.521-3.844 16.73-12.326l26.058-42.259c2.894-4.707 8.053-7.191 13.226-6.927.014.001.028 0 .042.001 2.353.127 4.708.822 6.852 2.137 3.319 2.04 5.647 5.268 6.555 9.087.904 3.805.283 7.714-1.754 11.014l-42.208 68.497c-2.897 4.702-1.435 10.862 3.268 13.76 4.705 2.898 10.863 1.435 13.76-3.268l42.203-68.49c4.844-7.845 6.331-17.128 4.189-26.138-2.145-9.024-7.664-16.66-15.548-21.505-2.002-1.228-4.081-2.226-6.207-3.005l6.214-80.142c.567-7.239 5.491-14.578 13.784-14.596 7.349 0 13.309 6.191 13.862 14.4l9.57 142.416c1.007 28.275-6.736 35.295-25.397 52.207z"/><path d="m375.61 170.088c34.692-35.894 34.692-94.299 0-130.193-14.789-15.3-35.048-23.225-57.089-22.328-20.895.855-41.075 9.434-56.816 24.147l-1.051.981c-1.597 1.492-3.324 3.106-4.656 4.259-1.332-1.152-3.06-2.767-4.656-4.259l-1.044-.976c-15.749-14.719-35.927-23.297-56.82-24.153-22.016-.89-42.291 7.029-57.062 22.325-34.725 35.896-34.725 94.304 0 130.2.081.083.163.165.247.246l112.394 108.366c1.937 1.867 4.439 2.801 6.941 2.801s5.003-.934 6.94-2.8l112.422-108.365c.085-.082.168-.166.25-.251zm-119.611 87.526-45.226-43.605c1.307-14.331 9.459-27.268 21.828-34.755 6.87 4.043 14.864 6.373 23.398 6.373 8.533 0 16.528-2.33 23.398-6.373 12.371 7.488 20.524 20.431 21.828 34.767zm-26.257-118.204c0-14.455 11.778-26.216 26.255-26.216s26.255 11.761 26.255 26.216c0 14.456-11.778 26.217-26.255 26.217-14.476 0-26.255-11.761-26.255-26.217zm88.384 58.318c-4.29-12.968-12.593-24.391-23.769-32.518 4.983-7.373 7.896-16.253 7.896-25.8 0-25.483-20.75-46.216-46.255-46.216s-46.255 20.732-46.255 46.216c0 9.547 2.913 18.427 7.896 25.8-11.172 8.124-19.474 19.543-23.765 32.505l-43.2-41.652c-27.188-28.238-27.15-74.079.124-102.272 21.744-22.521 60.252-21.38 85.849 2.546l1.039.971c6.922 6.47 11.496 10.743 18.312 10.743s11.39-4.273 18.313-10.743l1.046-.977c25.586-23.916 64.108-25.053 85.873-2.537 27.245 28.189 27.284 74.031.118 102.272z"/><path d="m149.868 474.498c-5.523 0-10 4.478-10 10s4.477 10 10 10h.057c5.523 0 9.972-4.478 9.972-10s-4.506-10-10.029-10z"/></symbol><symbol id="donation" viewBox="0 0 512 512"><title>donation</title><path d="M486.4,128h-1.463c2.768-7.836,1.562-16.527-3.236-23.313c-4.798-6.785-12.591-10.82-20.901-10.821h-9.996 c2.768-7.836,1.562-16.527-3.236-23.313s-12.591-10.82-20.901-10.821H332.8c-20.516,0.009-40.644,5.588-58.237,16.142 c-10.843,6.33-23.2,9.599-35.754,9.458h-25.475V68.267c-0.001-8.31-4.036-16.103-10.821-20.901s-15.477-6.005-23.313-3.236V25.6 c0-14.138-11.461-25.6-25.6-25.6C139.461,0,128,11.461,128,25.6v1.463c-7.836-2.768-16.527-1.562-23.313,3.236 S93.868,42.89,93.867,51.2v9.996c-7.836-2.768-16.527-1.562-23.313,3.236c-6.785,4.798-10.82,12.591-10.821,20.901V179.2 c0.009,20.516,5.588,40.644,16.142,58.238c6.33,10.843,9.599,23.2,9.458,35.754v25.475H68.267 c-8.31,0.001-16.103,4.036-20.901,10.821c-4.798,6.785-6.005,15.477-3.236,23.313H25.6C11.461,332.8,0,344.262,0,358.4 S11.461,384,25.6,384h1.463c-2.768,7.836-1.562,16.527,3.236,23.313s12.591,10.82,20.901,10.821h9.996 c-2.768,7.836-1.562,16.527,3.236,23.313c4.798,6.785,12.591,10.82,20.901,10.821H179.2c20.516-0.009,40.644-5.588,58.238-16.142 c10.843-6.33,23.2-9.599,35.754-9.458h25.475v17.067c0.001,8.31,4.036,16.103,10.821,20.901 c6.785,4.798,15.477,6.005,23.313,3.236V486.4c0,14.138,11.462,25.6,25.6,25.6s25.6-11.461,25.6-25.6v-1.463 c7.836,2.768,16.527,1.562,23.313-3.236c6.785-4.798,10.82-12.591,10.821-20.901v-9.996c7.836,2.768,16.527,1.562,23.313-3.236 c6.785-4.798,10.82-12.591,10.821-20.901V332.8c-0.009-20.516-5.588-40.644-16.142-58.237c-6.33-10.843-9.599-23.2-9.458-35.754 v-25.475h17.067c8.31-0.001,16.103-4.036,20.901-10.821s6.005-15.477,3.236-23.313H486.4c14.138,0,25.6-11.461,25.6-25.6 C512,139.461,500.539,128,486.4,128z M76.8,179.2V85.333c0-4.713,3.82-8.533,8.533-8.533s8.533,3.82,8.533,8.533v59.733 c0,4.713,3.82,8.533,8.533,8.533s8.533-3.821,8.533-8.533V51.2c0-4.713,3.82-8.533,8.533-8.533S128,46.487,128,51.2v93.867 c0,4.713,3.82,8.533,8.533,8.533s8.533-3.821,8.533-8.533V25.6c0-4.713,3.821-8.533,8.533-8.533c4.713,0,8.533,3.82,8.533,8.533 v119.467c0,4.713,3.82,8.533,8.533,8.533s8.533-3.821,8.533-8.533v-76.8c0-4.713,3.82-8.533,8.533-8.533s8.533,3.82,8.533,8.533 v128c0,4.713,3.82,8.533,8.533,8.533h16.531c-1.836,14.903-9.341,28.526-20.956,38.042c-7.941,6.524-12.573,16.24-12.642,26.517 v29.308H102.4v-25.475c0.14-15.649-3.97-31.042-11.892-44.538C81.545,213.715,76.807,196.622,76.8,179.2z M238.359,204.8h4.282 c5.219,0.076,10.136,2.464,13.421,6.521c12.855,15.352,31.212,25.058,51.138,27.039v4.282c-0.076,5.219-2.464,10.136-6.521,13.421 c-15.352,12.855-25.058,31.212-27.039,51.138h-4.282c-5.219-0.076-10.136-2.464-13.421-6.521 c-12.855-15.352-31.212-25.058-51.138-27.039v-4.282c0.076-5.219,2.464-10.136,6.521-13.421 C226.673,243.082,236.379,224.725,238.359,204.8z M298.667,409.6h-25.475c-15.649-0.141-31.042,3.97-44.538,11.892 c-14.939,8.963-32.032,13.701-49.454,13.708H85.333c-4.713,0-8.533-3.82-8.533-8.533s3.82-8.533,8.533-8.533h59.733 c4.713,0,8.533-3.82,8.533-8.533s-3.821-8.533-8.533-8.533H51.2c-4.713,0-8.533-3.821-8.533-8.533c0-4.713,3.82-8.533,8.533-8.533 h93.867c4.713,0,8.533-3.82,8.533-8.533s-3.821-8.533-8.533-8.533H25.6c-4.713,0-8.533-3.82-8.533-8.533s3.82-8.533,8.533-8.533 h119.467c4.713,0,8.533-3.82,8.533-8.533s-3.821-8.533-8.533-8.533h-76.8c-4.713,0-8.533-3.82-8.533-8.533s3.82-8.533,8.533-8.533 h128c4.713,0,8.533-3.82,8.533-8.533v-16.531c14.903,1.836,28.526,9.341,38.042,20.956c6.524,7.941,16.24,12.573,26.517,12.642 h29.308V409.6z M435.2,332.8v93.867c0,4.713-3.82,8.533-8.533,8.533s-8.533-3.82-8.533-8.533v-59.733 c0-4.713-3.82-8.533-8.533-8.533s-8.533,3.82-8.533,8.533V460.8c0,4.713-3.821,8.533-8.533,8.533c-4.713,0-8.533-3.82-8.533-8.533 v-93.867c0-4.713-3.82-8.533-8.533-8.533s-8.533,3.82-8.533,8.533V486.4c0,4.713-3.82,8.533-8.533,8.533s-8.533-3.82-8.533-8.533 V366.933c0-4.713-3.82-8.533-8.533-8.533s-8.533,3.82-8.533,8.533v76.8c0,4.713-3.82,8.533-8.533,8.533s-8.533-3.82-8.533-8.533 v-128c0-4.713-3.82-8.533-8.533-8.533h-16.531c1.836-14.903,9.341-28.526,20.956-38.042c7.941-6.524,12.573-16.24,12.642-26.517 v-29.308H409.6v25.475c-0.141,15.648,3.97,31.042,11.892,44.537C430.455,298.285,435.193,315.378,435.2,332.8z M486.4,162.133 H366.933c-4.713,0-8.533,3.82-8.533,8.533s3.82,8.533,8.533,8.533h76.8c4.713,0,8.533,3.82,8.533,8.533s-3.82,8.533-8.533,8.533 h-128c-4.713,0-8.533,3.82-8.533,8.533v16.531c-14.903-1.836-28.526-9.341-38.042-20.956c-6.524-7.941-16.24-12.573-26.517-12.642 h-29.308V102.4h25.475c15.648,0.14,31.042-3.97,44.537-11.892c14.939-8.963,32.032-13.701,49.454-13.708h93.867 c4.713,0,8.533,3.82,8.533,8.533s-3.82,8.533-8.533,8.533h-59.733c-4.713,0-8.533,3.82-8.533,8.533s3.82,8.533,8.533,8.533H460.8 c4.713,0,8.533,3.82,8.533,8.533S465.513,128,460.8,128h-93.867c-4.713,0-8.533,3.82-8.533,8.533s3.82,8.533,8.533,8.533H486.4 c4.713,0,8.533,3.821,8.533,8.533C494.933,158.313,491.113,162.133,486.4,162.133z"/></symbol><symbol id="down-arrow" viewBox="0 0 490.656 490.656"><title>down-arrow</title><g> <g> <path d="M487.536,216.467c-4.16-4.16-10.923-4.16-15.083,0L245.339,443.581L18.203,216.467c-4.16-4.16-10.923-4.16-15.083,0 c-4.16,4.16-4.16,10.923,0,15.083l234.667,234.667c2.091,2.069,4.821,3.115,7.552,3.115s5.461-1.045,7.531-3.115l234.667-234.667 C491.696,227.389,491.696,220.627,487.536,216.467z"/> </g> </g><g> <g> <path d="M487.536,24.445c-4.16-4.16-10.923-4.16-15.083,0L245.339,251.581L18.203,24.467c-4.16-4.16-10.923-4.16-15.083,0 c-4.16,4.16-4.16,10.923,0,15.083l234.667,234.667c2.091,2.069,4.821,3.115,7.552,3.115s5.461-1.045,7.531-3.136L487.536,39.528 C491.696,35.368,491.696,28.605,487.536,24.445z"/> </g> </g></symbol><symbol id="pin" viewBox="0 0 512 512"><title>pin</title><path d="M256,0C161.896,0,85.333,76.563,85.333,170.667c0,28.25,7.063,56.26,20.49,81.104L246.667,506.5 c1.875,3.396,5.448,5.5,9.333,5.5s7.458-2.104,9.333-5.5l140.896-254.813c13.375-24.76,20.438-52.771,20.438-81.021 C426.667,76.563,350.104,0,256,0z M256,256c-47.052,0-85.333-38.281-85.333-85.333c0-47.052,38.281-85.333,85.333-85.333 s85.333,38.281,85.333,85.333C341.333,217.719,303.052,256,256,256z"/></symbol></svg>